<svg width="24" height="24" viewBox="0 0 24 24" fill="none" xmlns="http://www.w3.org/2000/svg">
<path d="M7.04993 17.3185C6.75704 17.6114 6.75704 18.0863 7.04993 18.3791C7.34283 18.672 7.8177 18.672 8.11059 18.3791L7.04993 17.3185ZM17.8081 8.68168C18.1009 8.38879 18.1009 7.91392 17.8081 7.62102C17.5152 7.32813 17.0403 7.32813 16.7474 7.62102L17.8081 8.68168ZM11.8196 6.79527C11.4053 6.79712 11.0711 7.1344 11.0729 7.54861C11.0748 7.96282 11.412 8.2971 11.8262 8.29525L11.8196 6.79527ZM13.9505 7.53577L13.9538 8.28576L13.9505 7.53577ZM17.8933 11.4786L18.6433 11.482L17.8933 11.4786ZM17.1338 13.6028C17.132 14.017 17.4663 14.3543 17.8805 14.3562C18.2947 14.358 18.632 14.0237 18.6338 13.6095L17.1338 13.6028ZM17.0758 7.9735L17.5348 7.38037L17.5348 7.38037L17.0758 7.9735ZM17.4556 8.35332L18.0487 7.8943L18.0487 7.8943L17.4556 8.35332ZM8.11059 18.3791L17.8081 8.68168L16.7474 7.62102L7.04993 17.3185L8.11059 18.3791ZM11.8262 8.29525L13.9538 8.28576L13.9471 6.78578L11.8196 6.79527L11.8262 8.29525ZM17.1433 11.4753L17.1338 13.6028L18.6338 13.6095L18.6433 11.482L17.1433 11.4753ZM13.9538 8.28576C14.8198 8.2819 15.4059 8.28042 15.8503 8.32896C16.2797 8.37584 16.4809 8.46148 16.6167 8.56663L17.5348 7.38037C17.0904 7.03643 16.5772 6.89942 16.0132 6.83782C15.4642 6.77787 14.7778 6.78207 13.9471 6.78578L13.9538 8.28576ZM18.6433 11.482C18.647 10.6513 18.6512 9.96486 18.5913 9.4159C18.5297 8.85186 18.3926 8.33872 18.0487 7.8943L16.8625 8.81234C16.9676 8.9482 17.0532 9.14938 17.1001 9.57875C17.1487 10.0232 17.1472 10.6093 17.1433 11.4753L18.6433 11.482ZM16.6167 8.56663C16.7087 8.63781 16.7913 8.72036 16.8625 8.81234L18.0487 7.8943C17.8998 7.70192 17.7272 7.52925 17.5348 7.38037L16.6167 8.56663Z" fill="black"/>
</svg>
