<svg width="156" height="32" viewBox="0 0 156 32" fill="none" xmlns="http://www.w3.org/2000/svg">
<g clip-path="url(#clip0_667_282)">
<mask id="mask0_667_282" style="mask-type:luminance" maskUnits="userSpaceOnUse" x="0" y="0" width="157" height="32">
<path d="M156.001 0H0.00115967V32H156.001V0Z" fill="white"/>
</mask>
<g mask="url(#mask0_667_282)">
<path d="M9.32053 30.0552C8.33378 29.7661 7.63586 29.2073 7.37047 28.1785C7.19817 27.5106 7.29024 26.8718 7.63943 26.3026C7.80071 26.0398 7.81835 25.8419 7.70393 25.583C7.30183 24.673 6.90011 23.7627 6.51113 22.8469C6.12281 21.9326 5.75467 21.0095 5.36861 20.0942C5.11209 19.4862 4.83962 18.8851 4.57219 18.276C3.8044 18.2689 3.09234 18.0894 2.55446 17.491C2.16591 17.0587 1.90301 16.5728 1.91203 15.9397C1.92046 15.3479 1.96218 14.8021 2.30079 14.2851C2.84215 13.4587 4.05544 12.9936 4.94648 13.2938C5.35997 13.433 5.74767 13.6063 6.02863 13.9617C6.21327 14.1952 6.42492 14.2168 6.70374 14.1392C7.62293 13.883 8.54836 13.6498 9.47411 13.4191C9.83457 13.3292 9.72575 13.0089 9.77172 12.7886C9.83909 12.4654 9.83782 12.126 9.85201 11.7929C9.88111 11.1109 9.89213 10.4281 9.92715 9.74645C9.96325 9.0445 10.0206 8.34363 10.0654 7.64207C10.0771 7.45915 10.0267 7.3661 9.83839 7.2404C9.14976 6.78088 8.71048 6.13899 8.64222 5.25369C8.58307 4.48612 8.82133 3.82321 9.30691 3.29099C9.69188 2.86909 10.2094 2.59972 10.8114 2.56597C11.4438 2.53051 12.0204 2.63645 12.5518 3.03265C13.2536 3.55588 13.7716 4.62157 13.5081 5.45611C13.3092 6.08658 13.497 6.5053 13.8392 6.96591C14.8804 8.36725 15.9033 9.78293 16.944 11.1847C17.0013 11.2618 17.1678 11.3162 17.2622 11.2927C18.1544 11.0697 19.0435 10.833 19.9306 10.5896C21.0159 10.2918 22.0972 9.97807 23.1833 9.68322C23.5829 9.57474 23.9915 9.50037 24.4176 9.40565C24.4301 8.6429 24.7563 8.01224 25.3652 7.55893C25.9656 7.11183 26.6367 6.94146 27.3847 7.12219C28.0366 7.27976 28.5758 7.60699 28.9103 8.19547C29.7767 9.71957 29.138 11.6906 27.2779 12.0496C26.4418 12.2108 25.7297 11.9919 25.1701 11.364C24.8186 10.9697 24.4579 11.1897 24.1253 11.2751C22.8671 11.598 21.6217 11.9732 20.3678 12.3143C19.6519 12.5091 18.9287 12.6759 18.1834 12.8615C18.5569 13.3911 18.8912 13.885 19.2516 14.358C19.3201 14.4478 19.5053 14.5156 19.6147 14.4912C21.096 14.1608 22.1991 15.1866 22.5041 16.4455C22.6418 17.0137 22.5163 17.6007 22.2636 18.1451C22.2221 18.2344 22.2254 18.3969 22.2793 18.4728C22.8147 19.2268 23.365 19.9697 23.9082 20.7118C25.4125 20.4525 26.2951 20.9197 26.8672 22.1436C27.3665 23.2119 27.087 24.3931 26.0256 25.1928C25.0669 25.9152 23.8232 25.7882 23.0355 25.0986C22.0832 24.2647 21.8212 22.9824 22.5059 21.7866C22.2097 21.3757 21.9174 20.9644 21.6189 20.5578C21.3355 20.1719 21.0456 19.7911 20.7931 19.4542C20.2049 19.4115 19.6474 19.3712 19.0128 19.3253C18.0802 20.2906 17.06 21.346 16.0406 22.4023C15.6504 22.8066 15.2627 23.2135 14.8729 23.6182C13.9656 24.56 13.0505 25.4942 12.1609 26.453C12.0715 26.5495 12.1042 26.7985 12.1314 26.9683C12.3545 28.3615 12.0274 29.0556 10.9767 29.7831C10.515 30.1029 9.91785 30.1063 9.32053 30.0552ZM10.8452 24.513C10.8306 24.7555 10.816 24.998 10.8 25.2638C11.0333 25.0501 11.2683 24.8581 11.4769 24.6398C12.7252 23.3343 13.9655 22.0209 15.2122 20.7137C16.016 19.871 16.8301 19.0384 17.6272 18.189C17.7066 18.1043 17.7409 17.9297 17.7259 17.8056C17.642 17.1118 17.5037 16.421 17.9007 15.7662C17.9472 15.6894 17.9234 15.5143 17.8661 15.4341C17.4304 14.8237 16.9648 14.2353 16.5384 13.6184C16.3841 13.3952 16.1996 13.3797 16.0008 13.4314C15.3112 13.6108 14.628 13.8153 13.9404 14.003C13.2207 14.1995 12.4984 14.3856 11.7783 14.5807C11.5622 14.6392 11.3566 14.7163 11.3408 15.0013C11.3204 15.3703 11.2926 15.7388 11.2703 16.1076C11.199 17.286 11.1196 18.464 11.0605 19.6431C10.9804 21.2426 10.9162 22.8431 10.8452 24.513ZM6.74373 18.937C7.49845 20.7032 8.25317 22.4695 9.05132 24.3374C9.09888 24.1224 9.13473 24.0172 9.14384 23.9096C9.1951 23.3055 9.25463 22.7015 9.28405 22.0961C9.36338 20.4611 9.42782 18.8255 9.50143 17.1903C9.50996 17.0016 9.5453 16.8142 9.55714 16.6254C9.58605 16.1658 9.60846 15.7057 9.63629 15.1936C9.27068 15.2846 8.94976 15.364 8.62897 15.4443C8.03828 15.5921 7.44662 15.7361 6.85885 15.8954C6.80581 15.9097 6.74532 16.0227 6.74449 16.0906C6.73743 16.6576 6.42696 17.081 6.12969 17.5121C6.33097 17.9647 6.53475 18.4228 6.74373 18.937ZM11.6949 8.62466C11.6308 10.0242 11.5668 11.4237 11.5015 12.8492C12.749 12.5141 13.9631 12.188 15.2445 11.8438C14.1281 10.3109 13.0719 8.86056 11.9494 7.31919C11.8685 7.50427 11.79 7.61749 11.7712 7.74018C11.7298 8.00949 11.7185 8.2836 11.6949 8.62466ZM25.0223 23.7591C25.1034 23.6608 25.2383 23.5708 25.2545 23.4624C25.2886 23.2346 25.3238 22.9701 25.2425 22.7699C25.1292 22.4907 24.658 22.3124 24.4178 22.4033C24.1529 22.5036 23.9387 22.6745 23.8732 22.9811C23.7548 23.5357 24.3729 24.1514 25.0223 23.7591ZM26.9299 8.78997C26.5876 8.74651 26.3679 8.95163 26.2211 9.21525C26.0698 9.48693 26.0826 9.78447 26.2775 10.0496C26.4928 10.3424 26.8062 10.3761 27.1005 10.2805C27.3908 10.1861 27.5506 9.94831 27.5627 9.59957C27.5781 9.15579 27.284 8.98178 26.9299 8.78997ZM3.91827 15.1038C3.8692 15.1554 3.81619 15.2038 3.77175 15.2593C3.58476 15.4929 3.52795 15.9636 3.73235 16.1466C3.92482 16.319 4.20716 16.5027 4.43811 16.4879C4.81806 16.4636 5.03895 16.1091 5.03996 15.7418C5.0416 15.1488 4.62149 14.8854 3.91827 15.1038ZM19.852 17.6641C20.4117 17.7146 20.8378 17.476 20.7663 16.8397C20.7178 16.4068 20.3174 16.0764 19.9062 16.2037C19.6046 16.297 19.3916 16.4909 19.3472 16.811C19.2945 17.1905 19.451 17.475 19.852 17.6641ZM10.826 4.3761C10.6893 4.54602 10.4961 4.69528 10.4279 4.89019C10.2895 5.28608 10.4018 5.50111 10.7494 5.69449C11.087 5.88229 11.3971 5.85458 11.6169 5.56695C11.7923 5.33743 11.9539 5.07937 11.7569 4.76378C11.4837 4.3262 11.2957 4.23697 10.826 4.3761ZM9.58242 26.8257C9.22228 26.9783 9.02878 27.2165 9.06635 27.6517C9.10563 28.1075 9.49672 28.4211 9.9283 28.2803C10.4036 28.1253 10.538 27.7593 10.4901 27.4272C10.4409 27.087 10.0679 26.8156 9.58242 26.8257Z" fill="#0057FF"/>
<path d="M36.4628 18.8539H45.9298V20.605H36.4628V18.8539ZM35.2709 24.9595H33.1849L40.0387 8.83154H42.4227L49.2765 24.9595H47.1906L41.2307 10.7669L35.2709 24.9595ZM54.7401 19.9829C51.8977 19.4914 50.4765 18.3624 50.4765 16.596C50.4765 15.5976 50.8586 14.7759 51.6227 14.1307C52.3868 13.4703 53.3419 13.14 54.488 13.14C55.5424 13.14 56.4899 13.4319 57.3304 14.0155C58.1861 14.5992 58.7974 15.3826 59.1642 16.3656L57.4221 16.9877C57.1623 16.3119 56.7726 15.7819 56.253 15.3979C55.7487 15.0139 55.1756 14.8219 54.5338 14.8219C53.892 14.8219 53.3571 14.9832 52.9293 15.3058C52.5166 15.6283 52.3103 16.0277 52.3103 16.5039C52.3103 16.9493 52.5166 17.3103 52.9293 17.5867C53.3571 17.8632 54.0372 18.0859 54.9693 18.2549C57.9645 18.7771 59.4621 19.9599 59.4621 21.8031C59.4621 22.7707 59.0419 23.5848 58.2014 24.2453C57.3762 24.8904 56.3676 25.213 55.1757 25.213C54.0601 25.213 53.0439 24.9365 52.127 24.3835C51.2253 23.8306 50.5835 23.0856 50.2015 22.1487L51.8748 21.4344C52.1652 22.0949 52.5931 22.6171 53.1585 23.0011C53.7392 23.3851 54.3963 23.5771 55.1298 23.5771C55.848 23.5771 56.444 23.4159 56.9178 23.0933C57.3915 22.7554 57.6284 22.333 57.6284 21.8261C57.6284 20.9352 56.6656 20.3208 54.7401 19.9829ZM65.7087 19.9829C62.8664 19.4914 61.4453 18.3624 61.4453 16.596C61.4453 15.5976 61.8273 14.7759 62.5914 14.1307C63.3555 13.4703 64.3104 13.14 65.4566 13.14C66.511 13.14 67.4585 13.4319 68.2989 14.0155C69.1547 14.5992 69.766 15.3826 70.1327 16.3656L68.3906 16.9877C68.1308 16.3119 67.7412 15.7819 67.2216 15.3979C66.7173 15.0139 66.1442 14.8219 65.5024 14.8219C64.8606 14.8219 64.3257 14.9832 63.8978 15.3058C63.4854 15.6283 63.2791 16.0277 63.2791 16.5039C63.2791 16.9493 63.4854 17.3103 63.8978 17.5867C64.3257 17.8632 65.0058 18.0859 65.9379 18.2549C68.9331 18.7771 70.4307 19.9599 70.4307 21.8031C70.4307 22.7707 70.0105 23.5848 69.17 24.2453C68.3448 24.8904 67.3362 25.213 66.1442 25.213C65.0287 25.213 64.0124 24.9365 63.0957 24.3835C62.1941 23.8306 61.5522 23.0856 61.1702 22.1487L62.8435 21.4344C63.1339 22.0949 63.5618 22.6171 64.1271 23.0011C64.7078 23.3851 65.3649 23.5771 66.0984 23.5771C66.8166 23.5771 67.4126 23.4159 67.8863 23.0933C68.3601 22.7554 68.5969 22.333 68.5969 21.8261C68.5969 20.9352 67.6342 20.3208 65.7087 19.9829ZM72.5975 11.2047C72.353 10.9589 72.2308 10.6594 72.2308 10.3061C72.2308 9.95282 72.353 9.66098 72.5975 9.43058C72.842 9.18482 73.1324 9.06194 73.4686 9.06194C73.8201 9.06194 74.1104 9.18482 74.3396 9.43058C74.5842 9.66098 74.7064 9.95282 74.7064 10.3061C74.7064 10.6594 74.5842 10.9589 74.3396 11.2047C74.1104 11.4351 73.8201 11.5503 73.4686 11.5503C73.1324 11.5503 72.842 11.4351 72.5975 11.2047ZM72.5517 24.9595V13.4395H74.3855V24.9595H72.5517ZM81.11 19.9829C78.2677 19.4914 76.8465 18.3624 76.8465 16.596C76.8465 15.5976 77.2285 14.7759 77.9926 14.1307C78.7567 13.4703 79.7118 13.14 80.8579 13.14C81.9123 13.14 82.8598 13.4319 83.7003 14.0155C84.5561 14.5992 85.1673 15.3826 85.5341 16.3656L83.792 16.9877C83.5322 16.3119 83.1425 15.7819 82.6229 15.3979C82.1186 15.0139 81.5456 14.8219 80.9037 14.8219C80.2619 14.8219 79.7271 14.9832 79.2992 15.3058C78.8866 15.6283 78.6803 16.0277 78.6803 16.5039C78.6803 16.9493 78.8866 17.3103 79.2992 17.5867C79.7271 17.8632 80.4071 18.0859 81.3393 18.2549C84.3345 18.7771 85.8321 19.9599 85.8321 21.8031C85.8321 22.7707 85.4118 23.5848 84.5713 24.2453C83.7461 24.8904 82.7375 25.213 81.5456 25.213C80.43 25.213 79.4138 24.9365 78.4969 24.3835C77.5953 23.8306 76.9534 23.0856 76.5714 22.1487L78.2447 21.4344C78.5351 22.0949 78.963 22.6171 79.5284 23.0011C80.1091 23.3851 80.7662 23.5771 81.4997 23.5771C82.218 23.5771 82.8139 23.4159 83.2877 23.0933C83.7614 22.7554 83.9983 22.333 83.9983 21.8261C83.9983 20.9352 83.0355 20.3208 81.11 19.9829ZM93.1367 23.2085H94.6037V24.9595H92.8845C91.769 24.9595 90.8903 24.6754 90.2485 24.1071C89.6066 23.5387 89.2857 22.7707 89.2857 21.8031V15.1445H87.1768V13.4395H89.2857V10.0757L91.1195 9.70706V13.4395H94.6037V15.1445H91.1195V21.3883C91.1195 22.6018 91.7919 23.2085 93.1367 23.2085ZM103.563 19.6373L100.285 20.029C98.7412 20.2133 97.9695 20.8047 97.9695 21.8031C97.9695 22.3253 98.1834 22.7477 98.6113 23.0703C99.0392 23.3775 99.6123 23.5311 100.331 23.5311C101.309 23.5311 102.088 23.2392 102.669 22.6555C103.265 22.0719 103.563 21.3039 103.563 20.3515H104.365C104.365 21.7493 103.937 22.909 103.081 23.8306C102.225 24.7522 101.156 25.213 99.8721 25.213C98.7871 25.213 97.8855 24.9058 97.1672 24.2914C96.4643 23.6616 96.1128 22.8552 96.1128 21.8722C96.1281 20.9199 96.4643 20.1442 97.1214 19.5451C97.7938 18.9307 98.7183 18.5544 99.895 18.4162L103.563 18.0015V17.5407C103.563 16.8341 103.288 16.2197 102.737 15.6975C102.187 15.1752 101.515 14.9141 100.72 14.9141C100.002 14.9141 99.3678 15.1061 98.8176 15.4901C98.2675 15.8741 97.9084 16.3733 97.7403 16.9877L96.044 16.4347C96.3344 15.4671 96.8998 14.6837 97.7403 14.0847C98.5808 13.4856 99.5359 13.1861 100.606 13.1861C101.905 13.1861 103.028 13.6008 103.975 14.4303C104.923 15.2443 105.396 16.2197 105.396 17.3563V24.9595H103.563V19.6373ZM108.033 24.9595V13.4395H109.867V24.9595H108.033ZM116.01 24.9595V18.1397C116.01 17.1567 115.735 16.381 115.185 15.8127C114.65 15.2443 113.947 14.9602 113.076 14.9602C112.19 14.9602 111.433 15.2751 110.807 15.9048C110.18 16.5192 109.867 17.2642 109.867 18.1397H108.858C108.858 16.788 109.317 15.6283 110.234 14.6607C111.151 13.6776 112.266 13.1861 113.58 13.1861C114.788 13.1861 115.796 13.6085 116.606 14.4533C117.431 15.2981 117.844 16.3963 117.844 17.748V24.9595H116.01ZM125.327 23.2085H126.794V24.9595H125.075C123.959 24.9595 123.08 24.6754 122.439 24.1071C121.797 23.5387 121.476 22.7707 121.476 21.8031V15.1445H119.367V13.4395H121.476V10.0757L123.31 9.70706V13.4395H126.794V15.1445H123.31V21.3883C123.31 22.6018 123.982 23.2085 125.327 23.2085Z" fill="white"/>
<path d="M137.622 18.8539H147.089V20.605H137.622V18.8539ZM136.43 24.9595H134.344L141.198 8.83154H143.582L150.436 24.9595H148.35L142.39 10.7669L136.43 24.9595ZM154.28 24.9595H152.446V8.83154H154.28V24.9595Z" fill="#0057FF"/>
</g>
</g>
<defs>
<clipPath id="clip0_667_282">
<rect width="156" height="32" fill="white"/>
</clipPath>
</defs>
</svg>
