<svg width="24" height="24" viewBox="0 0 24 24" fill="none" xmlns="http://www.w3.org/2000/svg">
<path d="M12.0001 20.8506C12.3691 20.8506 12.668 20.5513 12.668 20.1827L12.668 3.81734C12.668 3.44834 12.3687 3.14946 12.0001 3.14946C11.6315 3.14946 11.3322 3.44871 11.3322 3.81734L11.3322 20.1823C11.3322 20.5513 11.6311 20.8506 12.0001 20.8506Z" fill="white"/>
<path d="M16.6759 17.3438C17.0449 17.3438 17.3438 17.0445 17.3438 16.6759V7.32412C17.3438 6.95512 17.0445 6.65625 16.6759 6.65625C16.3072 6.65625 16.008 6.9555 16.008 7.32412V16.6759C16.0076 17.0445 16.3069 17.3438 16.6759 17.3438Z" fill="white"/>
<path d="M21.3517 15.0059C21.7207 15.0059 22.0195 14.7066 22.0195 14.338V9.66211C22.0195 9.29311 21.7203 8.99423 21.3517 8.99423C20.983 8.99423 20.6838 9.29348 20.6838 9.66211V14.3376C20.6838 14.7066 20.983 15.0059 21.3517 15.0059Z" fill="white"/>
<path d="M7.32431 17.3438C7.69331 17.3438 7.99219 17.0445 7.99219 16.6759L7.99219 7.32412C7.99219 6.95512 7.69294 6.65625 7.32431 6.65625C6.95569 6.65625 6.65644 6.9555 6.65644 7.32412L6.65644 16.6759C6.65644 17.0445 6.95569 17.3438 7.32431 17.3438Z" fill="white"/>
<path d="M2.64853 15.0059C3.01753 15.0059 3.31641 14.7066 3.31641 14.338L3.31641 9.66211C3.31641 9.29311 3.01716 8.99423 2.64853 8.99423C2.27991 8.99423 1.98066 9.29348 1.98066 9.66211L1.98066 14.3376C1.98066 14.7066 2.27991 15.0059 2.64853 15.0059Z" fill="white"/>
</svg>
