<svg width="24" height="24" viewBox="0 0 24 24" fill="none" xmlns="http://www.w3.org/2000/svg">
<mask id="mask0_207_1084" style="mask-type:alpha" maskUnits="userSpaceOnUse" x="0" y="0" width="24" height="24">
<path d="M24 0H0V24H24V0Z" fill="#D9D9D9"/>
</mask>
<g mask="url(#mask0_207_1084)">
<path d="M15 19C14.4477 19 14 18.5523 14 18V6C14 5.4477 14.4477 5 15 5H17C17.5523 5 18 5.4477 18 6V18C18 18.5523 17.5523 19 17 19H15ZM7 19C6.4477 19 6 18.5523 6 18V6C6 5.4477 6.4477 5 7 5H9C9.5523 5 10 5.4477 10 6V18C10 18.5523 9.5523 19 9 19H7Z" fill="#0057FF"/>
</g>
</svg>
