<svg width="45" height="44" viewBox="0 0 45 44" fill="none" xmlns="http://www.w3.org/2000/svg">
<rect x="1" y="0.5" width="43" height="43" rx="21.5" stroke="#1B1B1B"/>
<path d="M22.4999 13.1494C22.1309 13.1494 21.832 13.4487 21.832 13.8173V30.1827C21.832 30.5517 22.1313 30.8505 22.4999 30.8505C22.8685 30.8505 23.1678 30.5513 23.1678 30.1827V13.8177C23.1678 13.4487 22.8689 13.1494 22.4999 13.1494Z" fill="#1B1B1B"/>
<path d="M17.8241 16.6562C17.4551 16.6562 17.1562 16.9555 17.1562 17.3241V26.6759C17.1562 27.0449 17.4555 27.3438 17.8241 27.3438C18.1928 27.3438 18.492 27.0445 18.492 26.6759V17.3241C18.4924 16.9555 18.1931 16.6562 17.8241 16.6562Z" fill="#1B1B1B"/>
<path d="M13.1483 18.9941C12.7793 18.9941 12.4805 19.2934 12.4805 19.662V24.3379C12.4805 24.7069 12.7797 25.0058 13.1483 25.0058C13.517 25.0058 13.8162 24.7065 13.8162 24.3379V19.6624C13.8162 19.2934 13.517 18.9941 13.1483 18.9941Z" fill="#1B1B1B"/>
<path d="M27.1757 16.6562C26.8067 16.6562 26.5078 16.9555 26.5078 17.3241V26.6759C26.5078 27.0449 26.8071 27.3438 27.1757 27.3438C27.5443 27.3438 27.8436 27.0445 27.8436 26.6759V17.3241C27.8436 16.9555 27.5443 16.6562 27.1757 16.6562Z" fill="#1B1B1B"/>
<path d="M31.8515 18.9941C31.4825 18.9941 31.1836 19.2934 31.1836 19.662V24.3379C31.1836 24.7069 31.4828 25.0058 31.8515 25.0058C32.2201 25.0058 32.5193 24.7065 32.5193 24.3379V19.6624C32.5193 19.2934 32.2201 18.9941 31.8515 18.9941Z" fill="#1B1B1B"/>
</svg>
